.
 
http://www.scenetime.com    -  Hottest private tracker on the net. !!!

Sign up will close shortly !!  Join now 

        Seed back for speed


...................................NFO:.................................................[img]http://img13.imageshack.us/img13/3365/51nskcw5v3l.jpg[/img]

[color=blue][size=4][b]Tom.and.Jerry.and.The.Wizard.of.Oz.2011.DVDRip.XVID.AC3.HQ.Hive-CM8[/b][/size][/color]


[b]Thx Hive

CM8 Doing It Right The First Time :D

Source: DVD-R

Video: 720x400 @bitrate 1900 2pass
Audio: English AC3 5.1 @448
Sample: yes included[/b]


[url]http://www.imdb.com/title/tt2027255/[/url]


General
Complete name                    : Tom.and.Jerry.and.The.Wizard.of.Oz.2011.DVDRip.XVID.AC3.HQ.Hive-CM8.avi
Format                           : AVI
Format/Info                      : Audio Video Interleave
File size                        : 1 004 MiB
Duration                         : 59mn 8s
Overall bit rate                 : 2 375 Kbps
Writing application              : Nandub v1.0rc2
Writing library                  : Nandub build 1853/release

Video
ID                               : 0
Format                           : MPEG-4 Visual
Format profile                   : Advanced Simple@L5
Format settings, BVOP            : 1
Format settings, QPel            : Yes
Format settings, GMC             : No warppoints
Format settings, Matrix          : Default (H.263)
Muxing mode                      : Packed bitstream
Codec ID                         : XVID
Codec ID/Hint                    : XviD
Duration                         : 59mn 8s
Bit rate                         : 1 915 Kbps
Width                            : 720 pixels
Height                           : 400 pixels
Display aspect ratio             : 16:9
Frame rate                       : 29.970 fps
Color space                      : YUV
Chroma subsampling               : 4:2:0
Bit depth                        : 8 bits
Scan type                        : Progressive
Compression mode                 : Lossy
Bits/(Pixel*Frame)               : 0.222
Stream size                      : 810 MiB (81%)
Writing library                  : XviD 1.2.1 (UTC 2008-12-04)

Audio
ID                               : 1
Format                           : AC-3
Format/Info                      : Audio Coding 3
Mode extension                   : CM (complete main)
Codec ID                         : 2000
Duration                         : 59mn 8s
Bit rate mode                    : Constant
Bit rate                         : 448 Kbps
Channel(s)                       : 6 channels
Channel positions                : Front: L C R, Side: L R, LFE
Sampling rate                    : 48.0 KHz
Bit depth                        : 16 bits
Compression mode                 : Lossy
Stream size                      : 189 MiB (19%)
Alignment                        : Split accross interleaves
Interleave, duration             : 33 ms (1.00 video frame)
Interleave, preload duration     : 500 ms


[img]http://img33.imageshack.us/img33/7578/72690803.png[/img]
[img]http://img40.imageshack.us/img40/2462/totoo.png[/img]
[img]http://img844.imageshack.us/img844/6499/tototo.png[/img]
[img]http://img15.imageshack.us/img15/5769/totototo.png[/img]
[img]http://img43.imageshack.us/img43/6884/tototototo.png[/img]
[img]http://img842.imageshack.us/img842/9025/totototototo.png[/img]
[img]http://img508.imageshack.us/img508/370/tototototototo.png[/img]
[img]http://img12.imageshack.us/img12/2311/tototottootototo.png[/img]



Greetz

ViSiON,SiC,SANTi,3LT0N,YanKeeS,MAGNET,THC,T0XiC,LKRG,FANTASIA-PLAY,FANTASIA-M,BHRG,IMAGiNE,WBZ,FLAWL3SS,NOVA,
D2U,Vik,Rapeseed,SAFC,goldadvance,MEMORY100,scumbag,Hero5,KaN1vE,Unevano,Pinnz,Wayne,cedrict wink,
Mr Hive and all P2P groups
Great Work Guys :D

FYS

LOOKING FOR ANYTHING YOU WANT TO LOOK AND SOUND BETTER

CM8@hushmail.com